<svg width="547" height="96" viewBox="0 0 547 96" fill="none" xmlns="http://www.w3.org/2000/svg">
<path d="M118.1 14.7C122.54 14.7 126.42 15.6 129.74 17.4C133.1 19.16 135.68 21.64 137.48 24.84C139.28 28.04 140.18 31.7 140.18 35.82C140.18 39.9 139.26 43.54 137.42 46.74C135.62 49.94 133.04 52.46 129.68 54.3C126.36 56.1 122.5 57 118.1 57H101.36V14.7H118.1ZM117.2 46.62C120.64 46.62 123.34 45.68 125.3 43.8C127.26 41.92 128.24 39.26 128.24 35.82C128.24 32.34 127.26 29.66 125.3 27.78C123.34 25.86 120.64 24.9 117.2 24.9H113.12V46.62H117.2ZM177.641 39.78C177.641 40.7 177.581 41.62 177.461 42.54H155.201C155.321 44.38 155.821 45.76 156.701 46.68C157.621 47.56 158.781 48 160.181 48C162.141 48 163.541 47.12 164.381 45.36H176.921C176.401 47.68 175.381 49.76 173.861 51.6C172.381 53.4 170.501 54.82 168.221 55.86C165.941 56.9 163.421 57.42 160.661 57.42C157.341 57.42 154.381 56.72 151.781 55.32C149.221 53.92 147.201 51.92 145.721 49.32C144.281 46.72 143.561 43.66 143.561 40.14C143.561 36.62 144.281 33.58 145.721 31.02C147.161 28.42 149.161 26.42 151.721 25.02C154.321 23.62 157.301 22.92 160.661 22.92C163.981 22.92 166.921 23.6 169.481 24.96C172.041 26.32 174.041 28.28 175.481 30.84C176.921 33.36 177.641 36.34 177.641 39.78ZM165.641 36.84C165.641 35.4 165.161 34.28 164.201 33.48C163.241 32.64 162.041 32.22 160.601 32.22C159.161 32.22 157.981 32.62 157.061 33.42C156.141 34.18 155.541 35.32 155.261 36.84H165.641ZM180.534 40.14C180.534 36.66 181.254 33.62 182.694 31.02C184.134 28.42 186.134 26.42 188.694 25.02C191.294 23.62 194.254 22.92 197.574 22.92C201.854 22.92 205.454 24.1 208.374 26.46C211.294 28.78 213.174 32.04 214.014 36.24H201.534C200.814 34.04 199.414 32.94 197.334 32.94C195.854 32.94 194.674 33.56 193.794 34.8C192.954 36 192.534 37.78 192.534 40.14C192.534 42.5 192.954 44.3 193.794 45.54C194.674 46.78 195.854 47.4 197.334 47.4C199.454 47.4 200.854 46.3 201.534 44.1H214.014C213.174 48.26 211.294 51.52 208.374 53.88C205.454 56.24 201.854 57.42 197.574 57.42C194.254 57.42 191.294 56.72 188.694 55.32C186.134 53.92 184.134 51.92 182.694 49.32C181.254 46.72 180.534 43.66 180.534 40.14ZM216.979 40.14C216.979 36.66 217.599 33.62 218.839 31.02C220.119 28.42 221.839 26.42 223.999 25.02C226.199 23.62 228.639 22.92 231.319 22.92C233.639 22.92 235.639 23.38 237.319 24.3C238.999 25.22 240.299 26.46 241.219 28.02V23.34H252.979V57H241.219V52.32C240.299 53.88 238.979 55.12 237.259 56.04C235.579 56.96 233.599 57.42 231.319 57.42C228.639 57.42 226.199 56.72 223.999 55.32C221.839 53.92 220.119 51.92 218.839 49.32C217.599 46.68 216.979 43.62 216.979 40.14ZM241.219 40.14C241.219 37.98 240.619 36.28 239.419 35.04C238.259 33.8 236.819 33.18 235.099 33.18C233.339 33.18 231.879 33.8 230.719 35.04C229.559 36.24 228.979 37.94 228.979 40.14C228.979 42.3 229.559 44.02 230.719 45.3C231.879 46.54 233.339 47.16 235.099 47.16C236.819 47.16 238.259 46.54 239.419 45.3C240.619 44.06 241.219 42.34 241.219 40.14ZM257.76 40.14C257.76 36.66 258.38 33.62 259.62 31.02C260.9 28.42 262.64 26.42 264.84 25.02C267.04 23.62 269.48 22.92 272.16 22.92C274.32 22.92 276.24 23.38 277.92 24.3C279.64 25.18 280.98 26.4 281.94 27.96V12.6H293.76V57H281.94V52.32C281.02 53.88 279.72 55.12 278.04 56.04C276.36 56.96 274.38 57.42 272.1 57.42C269.42 57.42 266.98 56.72 264.78 55.32C262.62 53.92 260.9 51.92 259.62 49.32C258.38 46.68 257.76 43.62 257.76 40.14ZM282 40.14C282 37.98 281.4 36.28 280.2 35.04C279.04 33.8 277.6 33.18 275.88 33.18C274.12 33.18 272.66 33.8 271.5 35.04C270.34 36.24 269.76 37.94 269.76 40.14C269.76 42.3 270.34 44.02 271.5 45.3C272.66 46.54 274.12 47.16 275.88 47.16C277.6 47.16 279.04 46.54 280.2 45.3C281.4 44.06 282 42.34 282 40.14ZM332.622 39.78C332.622 40.7 332.562 41.62 332.442 42.54H310.182C310.302 44.38 310.802 45.76 311.682 46.68C312.602 47.56 313.762 48 315.162 48C317.122 48 318.522 47.12 319.362 45.36H331.902C331.382 47.68 330.362 49.76 328.842 51.6C327.362 53.4 325.482 54.82 323.202 55.86C320.922 56.9 318.402 57.42 315.642 57.42C312.322 57.42 309.362 56.72 306.762 55.32C304.202 53.92 302.182 51.92 300.702 49.32C299.262 46.72 298.542 43.66 298.542 40.14C298.542 36.62 299.262 33.58 300.702 31.02C302.142 28.42 304.142 26.42 306.702 25.02C309.302 23.62 312.282 22.92 315.642 22.92C318.962 22.92 321.902 23.6 324.462 24.96C327.022 26.32 329.022 28.28 330.462 30.84C331.902 33.36 332.622 36.34 332.622 39.78ZM320.622 36.84C320.622 35.4 320.142 34.28 319.182 33.48C318.222 32.64 317.022 32.22 315.582 32.22C314.142 32.22 312.962 32.62 312.042 33.42C311.122 34.18 310.522 35.32 310.242 36.84H320.622ZM353.574 45.9L359.874 23.34H372.414L360.834 57H346.194L334.614 23.34H347.154L353.574 45.9ZM374.479 40.14C374.479 36.66 375.199 33.62 376.639 31.02C378.079 28.42 380.079 26.42 382.639 25.02C385.239 23.62 388.199 22.92 391.519 22.92C395.799 22.92 399.399 24.1 402.319 26.46C405.239 28.78 407.119 32.04 407.959 36.24H395.479C394.759 34.04 393.359 32.94 391.279 32.94C389.799 32.94 388.619 33.56 387.739 34.8C386.899 36 386.479 37.78 386.479 40.14C386.479 42.5 386.899 44.3 387.739 45.54C388.619 46.78 389.799 47.4 391.279 47.4C393.399 47.4 394.799 46.3 395.479 44.1H407.959C407.119 48.26 405.239 51.52 402.319 53.88C399.399 56.24 395.799 57.42 391.519 57.42C388.199 57.42 385.239 56.72 382.639 55.32C380.079 53.92 378.079 51.92 376.639 49.32C375.199 46.72 374.479 43.66 374.479 40.14ZM424.604 12.6V57H412.844V12.6H424.604ZM463.461 39.78C463.461 40.7 463.401 41.62 463.281 42.54H441.021C441.141 44.38 441.641 45.76 442.521 46.68C443.441 47.56 444.601 48 446.001 48C447.961 48 449.361 47.12 450.201 45.36H462.741C462.221 47.68 461.201 49.76 459.681 51.6C458.201 53.4 456.321 54.82 454.041 55.86C451.761 56.9 449.241 57.42 446.481 57.42C443.161 57.42 440.201 56.72 437.601 55.32C435.041 53.92 433.021 51.92 431.541 49.32C430.101 46.72 429.381 43.66 429.381 40.14C429.381 36.62 430.101 33.58 431.541 31.02C432.981 28.42 434.981 26.42 437.541 25.02C440.141 23.62 443.121 22.92 446.481 22.92C449.801 22.92 452.741 23.6 455.301 24.96C457.861 26.32 459.861 28.28 461.301 30.84C462.741 33.36 463.461 36.34 463.461 39.78ZM451.461 36.84C451.461 35.4 450.981 34.28 450.021 33.48C449.061 32.64 447.861 32.22 446.421 32.22C444.981 32.22 443.801 32.62 442.881 33.42C441.961 34.18 441.361 35.32 441.081 36.84H451.461ZM466.354 40.14C466.354 36.66 466.974 33.62 468.214 31.02C469.494 28.42 471.214 26.42 473.374 25.02C475.574 23.62 478.014 22.92 480.694 22.92C483.014 22.92 485.014 23.38 486.694 24.3C488.374 25.22 489.674 26.46 490.594 28.02V23.34H502.354V57H490.594V52.32C489.674 53.88 488.354 55.12 486.634 56.04C484.954 56.96 482.974 57.42 480.694 57.42C478.014 57.42 475.574 56.72 473.374 55.32C471.214 53.92 469.494 51.92 468.214 49.32C466.974 46.68 466.354 43.62 466.354 40.14ZM490.594 40.14C490.594 37.98 489.994 36.28 488.794 35.04C487.634 33.8 486.194 33.18 484.474 33.18C482.714 33.18 481.254 33.8 480.094 35.04C478.934 36.24 478.354 37.94 478.354 40.14C478.354 42.3 478.934 44.02 480.094 45.3C481.254 46.54 482.714 47.16 484.474 47.16C486.194 47.16 487.634 46.54 488.794 45.3C489.994 44.06 490.594 42.34 490.594 40.14ZM531.075 23.04C534.955 23.04 538.035 24.34 540.315 26.94C542.595 29.5 543.735 32.98 543.735 37.38V57H531.975V38.94C531.975 37.02 531.475 35.52 530.475 34.44C529.475 33.32 528.135 32.76 526.455 32.76C524.695 32.76 523.315 33.32 522.315 34.44C521.315 35.52 520.815 37.02 520.815 38.94V57H509.055V23.34H520.815V28.14C521.855 26.62 523.255 25.4 525.015 24.48C526.775 23.52 528.795 23.04 531.075 23.04ZM116.819 69.965L110.123 82.952V89H104.804V82.952L98.108 69.965H104.156L107.504 77.309L110.852 69.965H116.819ZM124.6 81.413C124.6 79.847 124.879 78.479 125.437 77.309C126.013 76.139 126.787 75.239 127.759 74.609C128.749 73.979 129.847 73.664 131.053 73.664C132.097 73.664 132.997 73.871 133.753 74.285C134.509 74.699 135.094 75.257 135.508 75.959V73.853H140.8V89H135.508V86.894C135.094 87.596 134.5 88.154 133.726 88.568C132.97 88.982 132.079 89.189 131.053 89.189C129.847 89.189 128.749 88.874 127.759 88.244C126.787 87.614 126.013 86.714 125.437 85.544C124.879 84.356 124.6 82.979 124.6 81.413ZM135.508 81.413C135.508 80.441 135.238 79.676 134.698 79.118C134.176 78.56 133.528 78.281 132.754 78.281C131.962 78.281 131.305 78.56 130.783 79.118C130.261 79.658 130 80.423 130 81.413C130 82.385 130.261 83.159 130.783 83.735C131.305 84.293 131.962 84.572 132.754 84.572C133.528 84.572 134.176 84.293 134.698 83.735C135.238 83.177 135.508 82.403 135.508 81.413ZM156.127 76.526C156.721 75.662 157.441 74.978 158.287 74.474C159.133 73.97 160.042 73.718 161.014 73.718V79.361H159.529C158.377 79.361 157.522 79.586 156.964 80.036C156.406 80.486 156.127 81.269 156.127 82.385V89H150.835V73.853H156.127V76.526ZM169.067 81.413C169.067 79.847 169.346 78.479 169.904 77.309C170.48 76.139 171.263 75.239 172.253 74.609C173.243 73.979 174.341 73.664 175.547 73.664C176.519 73.664 177.383 73.871 178.139 74.285C178.913 74.681 179.516 75.23 179.948 75.932V69.02H185.267V89H179.948V86.894C179.534 87.596 178.949 88.154 178.193 88.568C177.437 88.982 176.546 89.189 175.52 89.189C174.314 89.189 173.216 88.874 172.226 88.244C171.254 87.614 170.48 86.714 169.904 85.544C169.346 84.356 169.067 82.979 169.067 81.413ZM179.975 81.413C179.975 80.441 179.705 79.676 179.165 79.118C178.643 78.56 177.995 78.281 177.221 78.281C176.429 78.281 175.772 78.56 175.25 79.118C174.728 79.658 174.467 80.423 174.467 81.413C174.467 82.385 174.728 83.159 175.25 83.735C175.772 84.293 176.429 84.572 177.221 84.572C177.995 84.572 178.643 84.293 179.165 83.735C179.705 83.177 179.975 82.403 179.975 81.413ZM229.712 69.965V89H224.42V78.497L220.829 89H216.401L212.783 78.416V89H207.491V69.965H213.89L218.669 82.331L223.34 69.965H229.712ZM238.88 81.413C238.88 79.847 239.159 78.479 239.717 77.309C240.293 76.139 241.067 75.239 242.039 74.609C243.029 73.979 244.127 73.664 245.333 73.664C246.377 73.664 247.277 73.871 248.033 74.285C248.789 74.699 249.374 75.257 249.788 75.959V73.853H255.08V89H249.788V86.894C249.374 87.596 248.78 88.154 248.006 88.568C247.25 88.982 246.359 89.189 245.333 89.189C244.127 89.189 243.029 88.874 242.039 88.244C241.067 87.614 240.293 86.714 239.717 85.544C239.159 84.356 238.88 82.979 238.88 81.413ZM249.788 81.413C249.788 80.441 249.518 79.676 248.978 79.118C248.456 78.56 247.808 78.281 247.034 78.281C246.242 78.281 245.585 78.56 245.063 79.118C244.541 79.658 244.28 80.423 244.28 81.413C244.28 82.385 244.541 83.159 245.063 83.735C245.585 84.293 246.242 84.572 247.034 84.572C247.808 84.572 248.456 84.293 248.978 83.735C249.518 83.177 249.788 82.403 249.788 81.413ZM267.789 72.449C266.853 72.449 266.097 72.197 265.521 71.693C264.963 71.171 264.684 70.523 264.684 69.749C264.684 68.957 264.963 68.3 265.521 67.778C266.097 67.256 266.853 66.995 267.789 66.995C268.707 66.995 269.445 67.256 270.003 67.778C270.579 68.3 270.867 68.957 270.867 69.749C270.867 70.523 270.579 71.171 270.003 71.693C269.445 72.197 268.707 72.449 267.789 72.449ZM270.408 73.853V89H265.116V73.853H270.408ZM290.351 73.718C292.097 73.718 293.483 74.303 294.509 75.473C295.535 76.625 296.048 78.191 296.048 80.171V89H290.756V80.873C290.756 80.009 290.531 79.334 290.081 78.848C289.631 78.344 289.028 78.092 288.272 78.092C287.48 78.092 286.859 78.344 286.409 78.848C285.959 79.334 285.734 80.009 285.734 80.873V89H280.442V73.853H285.734V76.013C286.202 75.329 286.832 74.78 287.624 74.366C288.416 73.934 289.325 73.718 290.351 73.718ZM314.908 84.491V89H312.613C308.743 89 306.808 87.083 306.808 83.249V78.254H304.945V73.853H306.808V70.181H312.127V73.853H314.881V78.254H312.127V83.33C312.127 83.744 312.217 84.041 312.397 84.221C312.595 84.401 312.919 84.491 313.369 84.491H314.908ZM338.828 81.251C338.828 81.665 338.801 82.079 338.747 82.493H328.73C328.784 83.321 329.009 83.942 329.405 84.356C329.819 84.752 330.341 84.95 330.971 84.95C331.853 84.95 332.483 84.554 332.861 83.762H338.504C338.27 84.806 337.811 85.742 337.127 86.57C336.461 87.38 335.615 88.019 334.589 88.487C333.563 88.955 332.429 89.189 331.187 89.189C329.693 89.189 328.361 88.874 327.191 88.244C326.039 87.614 325.13 86.714 324.464 85.544C323.816 84.374 323.492 82.997 323.492 81.413C323.492 79.829 323.816 78.461 324.464 77.309C325.112 76.139 326.012 75.239 327.164 74.609C328.334 73.979 329.675 73.664 331.187 73.664C332.681 73.664 334.004 73.97 335.156 74.582C336.308 75.194 337.208 76.076 337.856 77.228C338.504 78.362 338.828 79.703 338.828 81.251ZM333.428 79.928C333.428 79.28 333.212 78.776 332.78 78.416C332.348 78.038 331.808 77.849 331.16 77.849C330.512 77.849 329.981 78.029 329.567 78.389C329.153 78.731 328.883 79.244 328.757 79.928H333.428ZM357.922 73.718C359.668 73.718 361.054 74.303 362.08 75.473C363.106 76.625 363.619 78.191 363.619 80.171V89H358.327V80.873C358.327 80.009 358.102 79.334 357.652 78.848C357.202 78.344 356.599 78.092 355.843 78.092C355.051 78.092 354.43 78.344 353.98 78.848C353.53 79.334 353.305 80.009 353.305 80.873V89H348.013V73.853H353.305V76.013C353.773 75.329 354.403 74.78 355.195 74.366C355.987 73.934 356.896 73.718 357.922 73.718ZM372.679 81.413C372.679 79.847 372.958 78.479 373.516 77.309C374.092 76.139 374.866 75.239 375.838 74.609C376.828 73.979 377.926 73.664 379.132 73.664C380.176 73.664 381.076 73.871 381.832 74.285C382.588 74.699 383.173 75.257 383.587 75.959V73.853H388.879V89H383.587V86.894C383.173 87.596 382.579 88.154 381.805 88.568C381.049 88.982 380.158 89.189 379.132 89.189C377.926 89.189 376.828 88.874 375.838 88.244C374.866 87.614 374.092 86.714 373.516 85.544C372.958 84.356 372.679 82.979 372.679 81.413ZM383.587 81.413C383.587 80.441 383.317 79.676 382.777 79.118C382.255 78.56 381.607 78.281 380.833 78.281C380.041 78.281 379.384 78.56 378.862 79.118C378.34 79.658 378.079 80.423 378.079 81.413C378.079 82.385 378.34 83.159 378.862 83.735C379.384 84.293 380.041 84.572 380.833 84.572C381.607 84.572 382.255 84.293 382.777 83.735C383.317 83.177 383.587 82.403 383.587 81.413ZM408.824 73.718C410.57 73.718 411.956 74.303 412.982 75.473C414.008 76.625 414.521 78.191 414.521 80.171V89H409.229V80.873C409.229 80.009 409.004 79.334 408.554 78.848C408.104 78.344 407.501 78.092 406.745 78.092C405.953 78.092 405.332 78.344 404.882 78.848C404.432 79.334 404.207 80.009 404.207 80.873V89H398.915V73.853H404.207V76.013C404.675 75.329 405.305 74.78 406.097 74.366C406.889 73.934 407.798 73.718 408.824 73.718ZM423.58 81.413C423.58 79.847 423.904 78.479 424.552 77.309C425.2 76.139 426.1 75.239 427.252 74.609C428.422 73.979 429.754 73.664 431.248 73.664C433.174 73.664 434.794 74.195 436.108 75.257C437.422 76.301 438.268 77.768 438.646 79.658H433.03C432.706 78.668 432.076 78.173 431.14 78.173C430.474 78.173 429.943 78.452 429.547 79.01C429.169 79.55 428.98 80.351 428.98 81.413C428.98 82.475 429.169 83.285 429.547 83.843C429.943 84.401 430.474 84.68 431.14 84.68C432.094 84.68 432.724 84.185 433.03 83.195H438.646C438.268 85.067 437.422 86.534 436.108 87.596C434.794 88.658 433.174 89.189 431.248 89.189C429.754 89.189 428.422 88.874 427.252 88.244C426.1 87.614 425.2 86.714 424.552 85.544C423.904 84.374 423.58 82.997 423.58 81.413ZM462.337 81.251C462.337 81.665 462.31 82.079 462.256 82.493H452.239C452.293 83.321 452.518 83.942 452.914 84.356C453.328 84.752 453.85 84.95 454.48 84.95C455.362 84.95 455.992 84.554 456.37 83.762H462.013C461.779 84.806 461.32 85.742 460.636 86.57C459.97 87.38 459.124 88.019 458.098 88.487C457.072 88.955 455.938 89.189 454.696 89.189C453.202 89.189 451.87 88.874 450.7 88.244C449.548 87.614 448.639 86.714 447.973 85.544C447.325 84.374 447.001 82.997 447.001 81.413C447.001 79.829 447.325 78.461 447.973 77.309C448.621 76.139 449.521 75.239 450.673 74.609C451.843 73.979 453.184 73.664 454.696 73.664C456.19 73.664 457.513 73.97 458.665 74.582C459.817 75.194 460.717 76.076 461.365 77.228C462.013 78.362 462.337 79.703 462.337 81.251ZM456.937 79.928C456.937 79.28 456.721 78.776 456.289 78.416C455.857 78.038 455.317 77.849 454.669 77.849C454.021 77.849 453.49 78.029 453.076 78.389C452.662 78.731 452.392 79.244 452.266 79.928H456.937Z" fill="white"/>
<g clip-path="url(#clip0_1_180)">
<path d="M14.0238 47.88C13.8874 48.115 13.8371 48.3912 13.8819 48.66C13.9267 48.9288 14.0637 49.1729 14.2687 49.3494C21.9226 55.9177 23.7511 66.3685 24.0394 68.3963C24.0785 68.6714 24.2139 68.9231 24.421 69.1054C24.628 69.2876 24.8929 69.3883 25.1671 69.389C25.2211 69.3884 25.2749 69.3841 25.3282 69.3759C25.6272 69.3323 25.8968 69.1703 26.078 68.9254C26.2592 68.6805 26.3372 68.3729 26.2948 68.0698C25.9404 65.5783 24.5131 58.1284 19.6124 51.707C22.6153 53.1977 25.6021 55.1651 28.3618 58.2068C31.3131 61.6648 33.1094 66.811 33.1271 66.86C33.175 67.0051 33.2508 67.1392 33.3502 67.2544C33.4496 67.3697 33.5706 67.4637 33.7062 67.5312C33.8417 67.5986 33.9892 67.6382 34.1399 67.6474C34.2906 67.6567 34.4417 67.6355 34.5843 67.5851C34.7269 67.5348 34.8582 67.4562 34.9706 67.354C35.083 67.2518 35.1743 67.128 35.2391 66.9897C35.3039 66.8515 35.341 66.7016 35.3482 66.5487C35.3554 66.3958 35.3326 66.243 35.281 66.0992C35.2053 65.8771 33.4203 60.7554 30.3256 56.979C30.0904 53.6271 29.2639 46.9331 26.3818 40.7387C29.0219 43.2153 31.3191 46.0426 33.2109 49.1437L33.2318 49.1813C35.1314 52.3122 36.6504 55.6645 37.7555 59.1651V59.1766V59.1929C38.2388 60.7162 38.822 63.2158 39.2054 65.0477C39.26 65.3068 39.4006 65.5391 39.6038 65.7058C39.807 65.8725 40.0604 65.9635 40.3219 65.9636C40.4019 65.9635 40.4818 65.9553 40.5603 65.9391C40.8564 65.8749 41.1153 65.6943 41.2801 65.4369C41.445 65.1795 41.5025 64.8663 41.4399 64.5661C41.0726 62.8224 40.5297 60.4843 40.0464 58.8647C41.2644 55.4132 42.8904 52.1238 44.8891 49.0686L44.9777 48.9364C46.8957 46.0178 49.1884 43.3708 51.7954 41.0652C48.6218 47.4327 47.66 54.3944 47.3764 57.5945V57.6108C47.3764 57.619 47.3764 57.6288 47.3764 57.6369C47.101 62.9497 48.1658 66.6526 48.211 66.8077C48.3063 67.0899 48.5054 67.3239 48.7668 67.4609C49.0282 67.5979 49.3317 67.6273 49.614 67.5431C49.8963 67.4589 50.1357 67.2675 50.2822 67.0088C50.4287 66.7502 50.471 66.4442 50.4003 66.1547C50.3906 66.122 49.4627 62.8566 49.6367 58.1986C52.0753 55.685 54.8826 53.5686 57.9591 51.9242C56.1419 54.4108 54.7742 57.3692 53.922 60.695C52.8539 64.8763 52.9795 68.1465 52.986 68.2837C52.9988 68.5811 53.1244 68.8621 53.3366 69.068C53.5488 69.2739 53.8312 69.3889 54.1249 69.389H54.1765C54.479 69.3755 54.7637 69.2407 54.9682 69.0145C55.1727 68.7883 55.2803 68.489 55.2672 68.1825C55.2672 68.0616 54.8467 55.9814 63.654 49.4066C63.8744 49.2422 64.0292 49.0031 64.0903 48.7328C64.1513 48.4625 64.1146 48.1789 63.9868 47.9337C63.859 47.6885 63.6486 47.498 63.3939 47.3967C63.1392 47.2955 62.857 47.2903 62.5988 47.3821C57.7078 49.1209 53.6529 51.4638 50.0539 54.6442C50.7837 49.9095 52.5687 42.6554 56.9055 37.3019C57.0767 37.092 57.1693 36.8277 57.1671 36.5555C57.1648 36.2833 57.0678 36.0206 56.8932 35.8137C56.7185 35.6069 56.4774 35.4691 56.2124 35.4248C55.9473 35.3804 55.6754 35.4323 55.4444 35.5712C52.5188 37.3051 48.3817 40.4317 44.4638 45.6971C42.5837 39.0701 42.3485 35.1418 44.0852 28.1768C44.1463 27.9302 44.1256 27.67 44.0263 27.4365C43.927 27.203 43.7546 27.0092 43.5357 26.8849C43.3168 26.7606 43.0637 26.7128 42.8153 26.7489C42.567 26.785 42.3372 26.9029 42.1616 27.0845C36.1703 33.2887 33.9616 39.8929 33.3011 45.1355C29.6248 40.0235 25.7068 36.9035 22.8876 35.1206C22.6601 34.9774 22.3902 34.9197 22.125 34.9576C21.8598 34.9956 21.6163 35.1268 21.4368 35.3283C21.2574 35.5297 21.1535 35.7887 21.1434 36.0599C21.1332 36.3312 21.2174 36.5974 21.3813 36.8121C25.5924 42.3044 27.1809 49.6384 27.7786 54.3928C23.7656 50.8107 19.49 48.9641 15.4077 47.387C15.1567 47.2907 14.8802 47.2874 14.627 47.3777C14.3738 47.4679 14.1602 47.6458 14.0238 47.88ZM42.7964 48.1119C41.2825 50.4609 39.9793 52.9427 38.9026 55.5275C37.9289 53.0061 36.7431 50.5743 35.3584 48.2588C35.4663 43.9355 36.6133 37.9729 40.9695 32.0479C40.1463 37.5468 40.847 41.666 42.7964 48.1119Z" fill="white"/>
<path d="M74.4476 65.3122C72.885 64.1122 70.0802 65.3579 66.5537 68.8208C66.5258 68.8475 66.4994 68.8759 66.4748 68.9057C63.8424 72.0715 54.1877 78.3557 47.7114 79.83L47.6744 79.8382C44.1898 80.7541 42.8559 80.6806 42.4048 80.5859C42.5659 80.212 43.0572 79.5231 43.8869 78.7524C45.9699 76.8161 48.2221 74.354 47.1315 72.4846C46.2116 70.9106 43.5035 70.091 30.0371 74.7197C23.7236 76.8895 17.1362 75.3483 10.4586 70.1368C7.28284 67.6239 4.46772 64.6753 2.09422 61.3758C1.95855 61.1683 1.7605 61.0107 1.52946 60.9263C1.29842 60.8419 1.04668 60.8352 0.811592 60.9072C0.576502 60.9792 0.370581 61.1261 0.224371 61.3261C0.0781616 61.5261 -0.000548662 61.7685 -8.4907e-05 62.0174C-0.00790705 62.1808 0.02477 62.3436 0.0949643 62.4909C2.77798 69.8917 7.46224 76.3777 13.6119 81.207C19.7616 86.0363 27.1283 89.0139 34.8694 89.7991C42.6106 90.5844 50.4135 89.1456 57.3856 85.6473C64.3577 82.1491 70.2175 76.7326 74.2946 70.0176C74.2967 70.0124 74.2994 70.0074 74.3027 70.0029L74.5894 69.5131L74.6136 69.4706C75.5689 67.6812 75.5061 66.1253 74.4476 65.3122ZM72.6159 68.3522L72.3453 68.8094C65.1522 80.63 52.691 87.6848 38.9975 87.6848C25.4651 87.6848 13.0265 80.5402 5.93969 69.2714C7.24605 70.5202 8.6318 71.6808 10.088 72.7458C13.1634 74.9793 16.2952 76.5189 19.3996 77.3173C23.1466 78.3191 27.1021 78.1777 30.7701 76.9108C42.0117 73.0478 44.5909 73.4593 45.108 73.6699C45.0275 73.9785 44.599 74.9499 42.3419 77.0479C40.95 78.3394 39.4647 80.2023 40.2879 81.7386C41.1111 83.275 43.3988 83.3501 48.2285 82.0831C55.2026 80.4896 65.2408 73.9295 68.1792 70.4437C70.9292 67.7563 72.4983 67.1783 73.0026 67.1783C72.9994 67.3661 72.9269 67.7628 72.6159 68.3522Z" fill="white"/>
<path d="M77.9045 33.514C75.223 26.112 70.5396 19.6245 64.3902 14.7938C58.2408 9.96318 50.8737 6.98454 43.132 6.19873C35.3903 5.41291 27.5867 6.85167 20.6141 10.3504C13.6415 13.8491 7.78162 19.2664 3.70489 25.9824L3.69683 25.9955L3.41007 26.4853L3.38591 26.5294C2.43058 28.3253 2.4918 29.8764 3.54701 30.6894C5.10968 31.8895 7.91444 30.6454 11.4409 27.1824C11.4693 27.1556 11.4957 27.1267 11.5199 27.0959C14.1603 23.9269 23.8151 17.6427 30.2865 16.17L30.3235 16.1602C33.8081 15.2459 35.142 15.3194 35.5931 15.414C35.432 15.7879 34.9407 16.4769 34.1126 17.2459C32.028 19.1823 29.7758 21.6444 30.868 23.5154C31.7879 25.0893 34.4944 25.9089 47.9608 21.2803C54.2743 19.1104 60.8617 20.6517 67.5409 25.8616C70.7169 28.3743 73.5316 31.3236 75.9037 34.6242C76.0083 34.782 76.1495 34.9115 76.3149 35.0011C76.4803 35.0908 76.6649 35.138 76.8525 35.1385C76.9195 35.1382 76.9863 35.1322 77.0523 35.1206C77.3171 35.0732 77.5569 34.9326 77.7294 34.7234C77.9018 34.5143 77.9958 34.2502 77.9947 33.9777C78.0029 33.8179 77.9719 33.6586 77.9045 33.514ZM67.9082 23.2526C64.8344 21.0207 61.701 19.4811 58.5983 18.6794C54.8525 17.6792 50.8988 17.8217 47.2326 19.0892C35.991 22.9522 33.4134 22.5407 32.8947 22.3301C32.9752 22.0215 33.4038 21.0501 35.6608 18.9521C37.0527 17.659 38.5364 15.7961 37.7132 14.2614C36.89 12.7266 34.6023 12.6483 29.7725 13.9169C22.8001 15.5104 12.7603 22.0689 9.8267 25.5547C7.07672 28.2421 5.5076 28.82 5.00336 28.82C5.00336 28.6274 5.07746 28.2323 5.39 27.6412L5.65904 27.1857C12.8538 15.3651 25.3133 8.3086 39.0068 8.3086C52.5393 8.3086 64.9762 15.4532 72.063 26.7237C70.7552 25.475 69.3672 24.3155 67.9082 23.2526Z" fill="white"/>
</g>
<defs>
<clipPath id="clip0_1_180">
<rect width="78" height="84" fill="white" transform="translate(0 6)"/>
</clipPath>
</defs>
</svg>
